<svg width="618" height="118" viewBox="0 0 618 118" xmlns="http://www.w3.org/2000/svg">
<mask id="mask0_22_46" style="mask-type:luminance" maskUnits="userSpaceOnUse" x="11" y="10" width="596" height="95">
<path class="cncf-text-color" d="M606.386 10.5295H11.9233V104.832H606.386V10.5295Z" />
</mask>
<g mask="url(#mask0_22_46)">
<path class="cncf-text-color" d="M153.145 51.7191C155.467 51.7191 157.635 51.2546 159.803 50.3255C161.816 49.3964 163.674 47.8479 165.068 45.9897L171.417 52.4934C166.462 58.0679 160.732 60.8552 153.919 60.8552C150.822 61.01 147.88 60.5455 144.938 59.3067C142.151 58.2228 139.518 56.5194 137.195 54.5064C135.027 52.4934 133.324 49.861 132.24 47.2285C131.156 44.4413 130.537 41.4991 130.692 38.557C130.537 35.6149 131.156 32.5179 132.24 29.7307C133.324 26.9434 135.027 24.4658 137.195 22.2979C139.518 20.1301 142.305 18.4267 145.247 17.3428C148.19 16.2589 151.441 15.7943 154.693 15.9492C157.945 16.104 161.042 16.8783 163.984 18.2719C166.926 19.6655 169.404 21.6786 171.572 24.1561L165.533 31.1243C164.139 29.2661 162.436 27.8725 160.423 26.9434C158.41 26.0143 156.242 25.3949 153.919 25.3949C150.512 25.3949 147.106 26.6337 144.473 28.9564C143.08 30.1952 142.151 31.7437 141.376 33.447C140.757 35.1504 140.447 37.0085 140.447 38.7119C140.292 40.5701 140.602 42.2734 141.221 43.9767C141.841 45.6801 142.77 47.2285 144.164 48.4673C146.641 50.4804 149.893 51.7191 153.145 51.7191ZM178.85 60.2358V16.5686H188.605V51.5643H207.342V60.2358H178.85ZM250.08 54.1967C245.589 58.3776 239.86 60.7003 233.666 60.7003C227.472 60.7003 221.743 58.3776 217.252 54.1967C215.084 52.1837 213.381 49.7061 212.297 46.9188C211.213 44.1316 210.594 41.1894 210.594 38.2473C210.439 35.3052 211.058 32.2082 212.142 29.5758C213.226 26.7885 214.929 24.311 217.097 22.2979C221.588 18.117 227.317 15.7943 233.511 15.7943C239.705 15.7943 245.434 18.117 249.925 22.2979C252.093 24.311 253.796 26.7885 254.88 29.5758C255.964 32.3631 256.583 35.3052 256.429 38.2473C256.583 41.1894 255.964 44.2864 254.88 46.9188C253.951 49.7061 252.248 52.1837 250.08 54.1967ZM246.673 38.2473C246.673 34.531 245.28 30.9695 242.802 28.1822C241.563 26.9434 240.17 25.8595 238.621 25.0852C237.073 24.311 235.214 24.0013 233.511 24.0013C231.808 24.0013 230.104 24.311 228.401 25.0852C226.853 25.8595 225.304 26.7885 224.22 28.1822C221.743 30.9695 220.349 34.531 220.349 38.2473C220.349 41.9637 221.743 45.5252 224.22 48.3125C225.459 49.5513 226.853 50.6352 228.401 51.4094C229.95 52.1837 231.808 52.4934 233.511 52.4934C235.214 52.4934 236.918 52.1837 238.621 51.4094C240.17 50.6352 241.718 49.7061 242.802 48.3125C244.041 46.9188 245.125 45.3704 245.744 43.667C246.518 41.8088 246.828 40.1055 246.673 38.2473ZM276.559 49.0867C277.333 50.1707 278.417 50.9449 279.501 51.4094C280.585 51.874 281.979 52.1837 283.217 52.1837C284.456 52.1837 285.695 52.0288 286.779 51.4094C287.863 50.9449 288.947 50.0158 289.566 49.0867C291.27 46.6091 292.044 43.8219 291.889 40.8798V16.7234H301.644V41.1895C301.644 47.5382 299.941 52.3385 296.38 55.7452C294.521 57.4485 292.508 58.8422 290.186 59.6164C287.863 60.5455 285.385 60.8552 282.908 60.8552C280.43 60.8552 277.953 60.5455 275.63 59.6164C273.307 58.6873 271.139 57.4485 269.436 55.7452C265.874 52.3385 264.171 47.5382 264.171 41.1895V16.7234H273.926V40.8798C273.926 43.8219 274.856 46.764 276.559 49.0867ZM345.466 22.2979C349.647 26.1692 351.815 31.434 351.815 38.2473C351.815 45.0607 349.802 50.4804 345.776 54.5064C341.75 58.5325 335.401 60.3906 327.194 60.3906H312.019V16.5686H327.504C335.246 16.5686 341.286 18.4267 345.466 22.2979ZM338.343 48.3125C340.666 46.1446 341.905 42.7379 341.905 38.4022C341.905 34.0664 340.666 30.8146 338.343 28.4919C336.021 26.1692 332.304 24.9304 327.349 24.9304H321.93V51.5643H328.123C331.84 51.874 335.556 50.7901 338.343 48.3125ZM407.406 16.5686H417.161V60.3906H407.406L386.501 32.9825V60.3906H376.746V16.5686H385.882L407.406 44.751V16.5686ZM459.125 60.2358L454.944 50.79H436.517L432.336 60.2358H421.807L440.698 16.4137H450.144L469.19 60.2358H459.125ZM445.963 29.5758L440.543 42.2734H451.383L445.963 29.5758ZM490.095 25.0852V60.3906H480.339V25.0852H467.952V16.7234H502.638V25.0852H490.095ZM509.451 16.5686H519.206V60.3906H509.451C509.451 60.2358 509.451 16.5686 509.451 16.5686ZM546.305 44.4413L557.454 16.5686H568.138L550.641 60.3906H542.434L524.936 16.5686H535.62L546.305 44.4413ZM604.683 16.5686V25.2401H582.849V34.2213H602.515V42.5831H582.849V51.7191H605.457V60.3906H573.249V16.7234L604.683 16.5686ZM141.841 97.5543C143.08 97.5543 144.318 97.2446 145.557 96.78C146.641 96.1606 147.725 95.3864 148.499 94.3025L152.061 98.0188C150.822 99.4124 149.428 100.651 147.57 101.425C145.867 102.2 144.009 102.664 142.151 102.664C140.447 102.664 138.744 102.509 137.195 101.89C135.647 101.271 134.098 100.342 132.86 99.1027C131.621 98.0188 130.692 96.6252 130.072 95.0767C129.453 93.5282 129.143 91.8249 129.143 90.1215C129.143 88.4182 129.453 86.7149 130.072 85.1664C130.692 83.6179 131.621 82.2243 132.86 80.9855C134.098 79.7467 135.492 78.8176 137.041 78.1982C138.589 77.5788 140.292 77.2691 141.996 77.2691C143.854 77.2691 145.867 77.5788 147.57 78.3531C149.274 79.1273 150.822 80.3661 152.216 81.7597L148.809 85.6309C148.035 84.547 147.106 83.7728 146.022 83.1534C144.938 82.534 143.699 82.3791 142.305 82.3791C140.292 82.3791 138.434 83.1534 137.041 84.3922C136.266 85.0115 135.647 85.9406 135.337 86.8697C135.027 87.7988 134.718 88.8828 134.873 89.8118C134.873 90.7409 135.027 91.8249 135.337 92.754C135.647 93.6831 136.266 94.6121 136.886 95.2315C137.505 95.8509 138.279 96.4703 139.208 96.78C140.137 97.0897 140.912 97.5543 141.841 97.5543ZM176.372 98.9479C173.894 101.271 170.643 102.664 167.236 102.664C165.533 102.664 163.829 102.355 162.281 101.735C160.732 101.116 159.339 100.187 158.1 98.9479C155.777 96.6252 154.384 93.3734 154.384 89.9667C154.384 86.56 155.777 83.3082 158.1 80.9855C160.577 78.6628 163.829 77.2691 167.236 77.2691C168.939 77.2691 170.643 77.5788 172.191 78.1982C173.74 78.8176 175.133 79.7467 176.372 80.9855C178.695 83.3082 180.088 86.56 180.088 89.9667C180.088 93.3734 178.695 96.6252 176.372 98.9479ZM174.669 89.9667C174.669 87.9537 174.049 85.9406 172.656 84.3922C172.036 83.6179 171.262 83.1534 170.333 82.6888C169.404 82.2243 168.475 82.0694 167.546 82.0694C166.617 82.0694 165.533 82.2243 164.758 82.6888C163.829 83.1534 163.055 83.7728 162.436 84.547C161.661 85.3212 161.197 86.0955 160.887 87.1794C160.577 88.1085 160.423 89.1925 160.423 90.1215C160.423 92.1346 161.197 94.1476 162.436 95.6961C163.055 96.4703 163.829 96.9349 164.758 97.3994C165.687 97.864 166.617 98.0188 167.546 98.0188C168.475 98.0188 169.559 97.864 170.333 97.3994C171.262 96.9349 172.036 96.3155 172.656 95.5412C173.894 94.1476 174.669 92.1346 174.669 89.9667ZM206.722 86.8697L200.064 100.342H196.812L190.154 86.8697V102.355H184.734V77.8885H192.167L198.515 91.3603L204.864 77.8885H212.297V102.509H206.877L206.722 86.8697ZM235.214 80.2112C236.143 80.9855 236.918 82.0694 237.382 83.3082C237.847 84.547 238.002 85.7858 237.847 87.0246C237.847 90.1215 236.918 92.2894 235.214 93.6831C233.511 95.2315 230.724 95.6961 227.162 95.6961H223.91V102.509H218.336V77.8885H227.007C230.724 77.8885 233.356 78.6628 235.214 80.2112ZM231.188 89.8118C231.963 88.8828 232.272 87.7988 232.272 86.56C232.272 85.9406 232.272 85.4761 231.963 84.8567C231.653 84.3922 231.343 83.9276 230.879 83.6179C229.64 82.9985 228.246 82.6888 226.853 82.6888H223.756V90.8958H227.472C228.091 90.8958 228.866 90.8958 229.485 90.7409C230.104 90.4312 230.724 90.1215 231.188 89.8118ZM248.686 96.0058C249.151 96.6252 249.615 96.9349 250.39 97.2446C251.009 97.5543 251.783 97.7091 252.403 97.7091C253.177 97.7091 253.796 97.5543 254.416 97.2446C255.035 96.9349 255.654 96.4703 256.119 96.0058C257.048 94.6121 257.513 92.9088 257.513 91.3603V77.7337H262.932V91.3603C263.087 92.9088 262.777 94.3025 262.313 95.8509C261.848 97.2446 261.074 98.6382 259.99 99.7221C257.977 101.58 255.19 102.509 252.403 102.509C249.615 102.509 246.983 101.425 244.97 99.5673C243.886 98.4834 243.112 97.0897 242.647 95.6961C242.183 94.3024 241.873 92.754 242.028 91.2055V77.5788H247.447V91.2055C247.138 92.9088 247.602 94.6121 248.686 96.0058ZM278.882 82.6888V102.355H273.462V82.6888H266.494V78.0434H286.005V82.6888C285.85 82.6888 278.882 82.6888 278.882 82.6888ZM289.876 77.8885H295.296V102.509H289.876V77.8885ZM318.523 77.8885H323.943V102.509H318.523L306.909 87.1794V102.509H301.49V77.8885H306.6L318.678 93.6831L318.523 77.8885ZM346.086 89.9667H351.506V98.6382C350.267 100.032 348.563 101.116 346.86 101.735C345.157 102.509 343.144 102.819 341.286 102.664C337.879 102.664 334.627 101.425 332.15 99.1027C330.911 98.0188 329.982 96.6252 329.362 95.0767C328.743 93.5282 328.433 91.8249 328.433 90.1215C328.433 88.4182 328.743 86.7149 329.362 85.1664C329.982 83.6179 330.911 82.2243 332.15 80.9855C333.388 79.7467 334.782 78.8176 336.33 78.1982C337.879 77.5788 339.582 77.2691 341.286 77.2691C344.692 77.2691 347.944 78.5079 350.422 80.8306L347.634 85.0115C346.86 84.0825 345.776 83.4631 344.537 83.1534C343.608 82.8437 342.524 82.534 341.595 82.534C339.582 82.534 337.724 83.3082 336.33 84.547C335.556 85.3212 334.937 86.0955 334.627 87.1794C334.317 88.2634 334.008 89.1925 334.163 90.2764C334.163 92.2894 334.782 94.3025 336.176 95.8509C336.795 96.4703 337.569 97.0897 338.343 97.3994C339.118 97.7091 340.047 97.864 340.976 97.864C342.679 98.0188 344.228 97.5543 345.621 96.78V89.8118H346.086V89.9667ZM382.475 77.8885V82.6888H371.171V87.9537H381.856V92.9088H371.171V102.509H365.752V77.8885C365.597 77.8885 382.475 77.8885 382.475 77.8885ZM407.87 98.9479C405.393 101.271 402.141 102.664 398.734 102.664C397.031 102.664 395.328 102.355 393.779 101.735C392.231 101.116 390.837 100.187 389.598 98.9479C387.276 96.6252 385.882 93.3734 385.882 89.9667C385.882 86.56 387.276 83.3082 389.598 80.9855C392.076 78.6628 395.328 77.2691 398.734 77.2691C400.438 77.2691 402.141 77.5788 403.69 78.1982C405.238 78.8176 406.632 79.7467 407.87 80.9855C410.193 83.3082 411.587 86.56 411.587 89.9667C411.587 93.3734 410.193 96.6252 407.87 98.9479ZM405.857 89.9667C405.857 87.9537 405.238 85.9406 403.844 84.3922C403.225 83.6179 402.451 83.1534 401.522 82.6888C400.592 82.2243 399.663 82.0694 398.734 82.0694C397.805 82.0694 396.721 82.2243 395.947 82.6888C395.018 83.1534 394.244 83.7728 393.624 84.547C392.85 85.3212 392.386 86.0955 392.076 87.1794C391.766 88.2634 391.611 89.1925 391.611 90.1215C391.611 92.1346 392.386 94.1476 393.624 95.6961C394.244 96.4703 395.018 96.9349 395.947 97.3994C396.876 97.864 397.805 98.0188 398.734 98.0188C399.663 98.0188 400.747 97.864 401.522 97.3994C402.451 96.9349 403.225 96.3155 403.844 95.5412C404.619 94.767 405.083 93.9928 405.393 92.9088C405.702 91.8249 406.012 91.0506 405.857 89.9667ZM422.736 96.0058C423.2 96.6252 423.665 96.9349 424.439 97.2446C425.059 97.5543 425.833 97.7091 426.452 97.7091C427.072 97.7091 427.846 97.5543 428.465 97.2446C429.085 96.9349 429.704 96.4703 430.169 96.0058C431.098 94.6121 431.562 92.9088 431.562 91.3603V77.7337H436.982V91.3603C437.137 92.9088 436.827 94.3025 436.362 95.8509C435.898 97.2446 435.124 98.6382 434.04 99.7221C432.027 101.58 429.239 102.509 426.452 102.509C423.665 102.509 421.033 101.425 419.02 99.5673C417.936 98.4834 417.161 97.0897 416.697 95.6961C416.232 94.3024 415.923 92.754 416.077 91.2055V77.5788H421.497V91.2055C421.187 92.9088 421.652 94.767 422.736 96.0058ZM459.745 77.8885H465.164V102.509H459.745L448.131 87.1794V102.509H442.711V77.8885H447.821L459.899 93.6831L459.745 77.8885ZM489.94 81.1403C491.179 82.2243 492.108 83.7728 492.727 85.3212C493.347 86.8697 493.656 88.5731 493.502 90.1215C493.656 91.8249 493.347 93.3734 492.727 94.9218C492.108 96.4703 491.179 97.864 490.095 99.1027C487.927 101.271 484.366 102.509 479.565 102.509H471.203V77.8885H479.875C484.366 77.8885 487.772 78.9725 489.94 81.1403ZM485.914 95.8509C486.533 95.0767 487.153 94.3024 487.462 93.3734C487.772 92.4443 487.927 91.3603 487.927 90.4312C487.927 89.3473 487.772 88.4182 487.462 87.4891C487.153 86.56 486.533 85.6309 485.914 84.8567C484.985 84.0825 484.056 83.6179 482.972 83.3082C481.888 82.9985 480.804 82.8437 479.72 82.9985H476.623V97.864H480.185C482.198 97.7091 484.365 97.0897 485.914 95.8509ZM515.026 102.355L512.858 97.0897H502.483L500.315 102.355H494.431L505.115 77.7337H510.38L521.065 102.355H515.026ZM507.593 85.1664L504.496 92.2894H510.69L507.593 85.1664ZM532.368 82.6888V102.355H526.949V82.6888H519.826V78.0434H539.337V82.6888H532.368ZM543.208 77.8885H548.628V102.509H543.208V77.8885ZM575.416 98.9479C572.939 101.271 569.687 102.664 566.28 102.664C564.577 102.664 562.874 102.355 561.325 101.735C559.777 101.116 558.383 100.187 557.144 98.9479C554.822 96.6252 553.428 93.3734 553.428 89.9667C553.428 86.56 554.822 83.3082 557.144 80.9855C559.622 78.6628 562.874 77.2691 566.28 77.2691C567.984 77.2691 569.687 77.5788 571.235 78.1982C572.784 78.8176 574.178 79.7467 575.416 80.9855C577.739 83.3082 579.133 86.56 579.133 89.9667C579.133 93.3734 577.739 96.6252 575.416 98.9479ZM573.713 89.9667C573.713 87.9537 572.939 85.9406 571.7 84.3922C571.081 83.6179 570.306 83.1534 569.377 82.6888C568.448 82.2243 567.519 82.0694 566.59 82.0694C565.661 82.0694 564.577 82.2243 563.803 82.6888C562.874 83.1534 562.099 83.7728 561.48 84.547C560.706 85.3212 560.241 86.0955 559.932 87.1794C559.622 88.2634 559.467 89.1925 559.467 90.1215C559.467 92.1346 560.241 94.1476 561.48 95.6961C562.099 96.4703 562.874 96.9349 563.803 97.3994C564.732 97.864 565.661 98.0188 566.59 98.0188C567.519 98.0188 568.603 97.864 569.377 97.3994C570.306 96.9349 571.081 96.3155 571.7 95.5412C572.939 94.1476 573.713 92.1346 573.713 89.9667ZM600.966 77.8885H606.386V102.509H600.966L589.353 87.1794V102.509H583.778V77.8885H588.888L600.966 93.6831C601.121 93.6831 600.966 77.8885 600.966 77.8885Z" />
</g>
<path d="M25.2402 73.2432H11.9232V104.677H43.3574V91.2056H25.2402V73.2432Z" fill="#0086FF"/>
<path d="M92.7543 73.398V91.2056H74.7919V104.677H106.226V73.2432L92.7543 73.398Z" fill="#0086FF"/>
<path d="M11.9233 41.9638H25.5499L25.2402 41.8089V24.0014H43.2027V10.5295H11.9233V41.9638Z" fill="#0086FF"/>
<path d="M74.7919 10.5295V24.0014H92.7543V41.9638H106.226V10.5295H74.7919Z" fill="#0086FF"/>
<path d="M73.0883 41.9638L54.971 24.0014H74.6367V10.5295H43.2025V24.0014L61.1649 41.9638H73.0883Z" fill="#93EAFF"/>
<path d="M56.8292 73.2432H45.0607L59.9261 88.1086L62.8683 91.2056H43.2025V104.677H74.7916V91.0507L65.8104 82.2244L56.8292 73.2432Z" fill="#93EAFF"/>
<path d="M92.7543 41.9639V61.4748L89.6573 58.3778L74.7919 43.5124V55.4357L83.6182 64.262L92.5994 73.2432H106.226V41.9639H92.7543Z" fill="#93EAFF"/>
<path d="M43.2026 59.7714L25.395 41.9639H11.9232V73.2432H25.395V53.7323L43.3574 71.6948V59.7714H43.2026Z" fill="#93EAFF"/>
</svg>
