<svg width="19" height="19" viewBox="0 0 19 19" xmlns="http://www.w3.org/2000/svg">
<path class="download-icon-color" d="M18.5 13.592V17.5763C18.5 17.6556 18.4887 17.7293 18.4717 17.7973C18.3923 18.1883 18.0466 18.4831 17.6385 18.4831H1.35579C0.919395 18.4831 0.556675 18.1487 0.511335 17.7236C0.5 17.6726 0.5 17.6273 0.5 17.5706V13.5863C0.5 13.1159 0.88539 12.7362 1.35013 12.7362C1.58249 12.7362 1.79786 12.8326 1.95088 12.9856C2.1039 13.1386 2.20025 13.354 2.20025 13.5863V16.7771H16.8054V13.5863C16.8054 13.1159 17.1908 12.7362 17.6555 12.7362C17.8879 12.7362 18.1033 12.8326 18.2563 12.9856C18.4037 13.1443 18.5 13.3596 18.5 13.592Z"/>
<path class="download-icon-color" d="M14.4024 9.60204L10.2254 13.779C10.2198 13.7903 10.2084 13.796 10.2027 13.8017C10.0497 13.9547 9.85136 14.051 9.653 14.0794C9.636 14.0794 9.619 14.085 9.60199 14.085C9.56799 14.0907 9.53398 14.0907 9.49998 14.0907L9.40363 14.085C9.38663 14.085 9.36962 14.0794 9.35262 14.0794C9.14859 14.051 8.9559 13.9547 8.80287 13.8017C8.79721 13.796 8.78587 13.7847 8.7802 13.779L4.60325 9.60204C4.41056 9.40935 4.31421 9.15431 4.31421 8.89927C4.31421 8.64423 4.41056 8.3892 4.60325 8.1965C4.98864 7.81111 5.61774 7.81111 6.00879 8.1965L8.5195 10.7072V1.50884C8.5195 0.964762 8.96723 0.517029 9.51131 0.517029C9.78335 0.517029 10.0327 0.630379 10.2141 0.806072C10.3954 0.987432 10.5031 1.23113 10.5031 1.50884V10.7072L13.0138 8.1965C13.3992 7.81111 14.0283 7.81111 14.4194 8.1965C14.7878 8.58756 14.7878 9.21665 14.4024 9.60204Z"/>
</svg>
