<svg width="33" height="32" viewBox="0 0 33 32" xmlns="http://www.w3.org/2000/svg">
<path class="github-icon" fill-rule="evenodd" clip-rule="evenodd" d="M16.4576 0C7.63635 0 0.505249 7.33333 0.505249 16.4057C0.505249 23.6577 5.07439 29.7963 11.413 31.969C12.2055 32.1323 12.4958 31.616 12.4958 31.1817C12.4958 30.8013 12.4697 29.4977 12.4697 28.1393C8.03211 29.1173 7.10803 26.1837 7.10803 26.1837C6.39488 24.2823 5.33823 23.7937 5.33823 23.7937C3.88582 22.7887 5.44403 22.7887 5.44403 22.7887C7.05513 22.8973 7.90052 24.4727 7.90052 24.4727C9.32647 26.9713 11.6243 26.2653 12.5487 25.8307C12.6806 24.7713 13.1035 24.038 13.5524 23.6307C10.0132 23.2503 6.28941 21.838 6.28941 15.5363C6.28941 13.7437 6.92288 12.277 7.92664 11.1363C7.76827 10.729 7.21349 9.04467 8.08533 6.79033C8.08533 6.79033 9.43227 6.35567 12.4693 8.47433C13.7696 8.11522 15.1106 7.93254 16.4576 7.931C17.8045 7.931 19.1776 8.12133 20.4455 8.47433C23.4829 6.35567 24.8298 6.79033 24.8298 6.79033C25.7017 9.04467 25.1466 10.729 24.9882 11.1363C26.0184 12.277 26.6257 13.7437 26.6257 15.5363C26.6257 21.838 22.902 23.223 19.3363 23.6307C19.9175 24.1467 20.419 25.1243 20.419 26.6727C20.419 28.8727 20.3929 30.6383 20.3929 31.1813C20.3929 31.616 20.6835 32.1323 21.4757 31.9693C27.8143 29.796 32.3835 23.6577 32.3835 16.4057C32.4096 7.33333 25.2524 0 16.4576 0Z" />
</svg>
